<svg width="82" height="16" viewBox="0 0 82 16" fill="none" xmlns="http://www.w3.org/2000/svg">
<g clip-path="url(#clip0_1_1196)">
<path d="M7.04393 0.41836C7.74295 0.41836 8.3882 0.47213 8.97967 0.633442C9.57115 0.740983 10.0551 0.956065 10.4852 1.22492C10.9154 1.49377 11.238 1.87016 11.4531 2.3541C11.6682 2.83803 11.7757 3.42951 11.7757 4.07475C11.7757 4.82754 11.6144 5.47279 11.238 5.95672C10.9154 6.44066 10.3777 6.87082 9.73246 7.19344C10.6466 7.46229 11.3456 7.94623 11.7757 8.59147C12.2059 9.23672 12.4748 10.0433 12.4748 10.9574C12.4748 11.7102 12.3134 12.3554 12.0446 12.8931C11.7757 13.4308 11.3456 13.9148 10.8616 14.2374C10.3777 14.56 9.78623 14.8289 9.14098 14.9902C8.49574 15.1515 7.85049 15.259 7.20524 15.259H-1.90735e-06V0.41836H7.04393ZM6.61377 6.44066C7.20524 6.44066 7.68918 6.27934 8.06557 6.01049C8.44197 5.74164 8.60328 5.2577 8.60328 4.66623C8.60328 4.34361 8.54951 4.02098 8.44197 3.8059C8.33442 3.59082 8.17311 3.42951 7.95803 3.2682C7.74295 3.16066 7.52787 3.05311 7.25902 2.99934C6.99016 2.94557 6.72131 2.94557 6.39869 2.94557H3.28V6.44066H6.61377ZM6.77508 12.7856C7.0977 12.7856 7.42033 12.7318 7.68918 12.678C7.95803 12.6243 8.22688 12.5167 8.44197 12.3554C8.65705 12.1941 8.81836 12.0328 8.97967 11.7639C9.08721 11.4951 9.19475 11.1725 9.19475 10.7961C9.19475 10.0433 8.97967 9.50557 8.54951 9.12918C8.11934 8.80656 7.52787 8.64525 6.82885 8.64525H3.28V12.7856H6.77508ZM17.1528 12.7318C17.5829 13.162 18.2282 13.377 19.0885 13.377C19.68 13.377 20.2177 13.2157 20.6479 12.9469C21.078 12.6243 21.3469 12.3016 21.4544 11.979H24.0892C23.659 13.2695 23.0138 14.1836 22.1534 14.7751C21.2931 15.3128 20.2715 15.6354 19.0348 15.6354C18.1744 15.6354 17.4216 15.4741 16.7226 15.2052C16.0236 14.9364 15.4859 14.56 15.002 14.0223C14.518 13.5384 14.1416 12.9469 13.9266 12.2479C13.6577 11.5489 13.5502 10.7961 13.5502 9.93574C13.5502 9.12918 13.6577 8.37639 13.9266 7.67738C14.1954 6.97836 14.5718 6.38688 15.0557 5.84918C15.5397 5.36525 16.1311 4.93508 16.7764 4.66623C17.4754 4.39738 18.1744 4.23606 19.0348 4.23606C19.9489 4.23606 20.7554 4.39738 21.4544 4.77377C22.1534 5.15016 22.6911 5.58033 23.1213 6.22557C23.5515 6.81705 23.8741 7.51607 24.0892 8.26885C24.1967 9.02164 24.2505 9.77443 24.1967 10.6348H16.4C16.4 11.4951 16.7226 12.3016 17.1528 12.7318ZM20.5403 7.0859C20.1639 6.70951 19.5725 6.49443 18.8734 6.49443C18.3895 6.49443 18.0131 6.60197 17.6905 6.76328C17.3679 6.92459 17.1528 7.13967 16.9377 7.35475C16.7226 7.56984 16.6151 7.83869 16.5613 8.10754C16.5075 8.37639 16.4538 8.59148 16.4538 8.80656H21.2931C21.1856 8 20.9167 7.46229 20.5403 7.0859ZM28.3908 0.41836V6.01049H28.4446C28.821 5.36524 29.3049 4.93508 29.8964 4.66623C30.4879 4.39738 31.0256 4.23606 31.617 4.23606C32.4236 4.23606 33.0689 4.34361 33.5528 4.55869C34.0367 4.77377 34.4669 5.09639 34.7357 5.47279C35.0046 5.84918 35.2197 6.33311 35.3272 6.87082C35.4348 7.40852 35.4885 8 35.4885 8.69902V15.3128H32.5311V9.23672C32.5311 8.32262 32.3698 7.67738 32.101 7.24721C31.8321 6.81705 31.3482 6.60197 30.6492 6.60197C29.8426 6.60197 29.2511 6.87082 28.9285 7.30098C28.5521 7.78492 28.3908 8.59148 28.3908 9.66689V15.3128H25.4334V0.41836H28.3908ZM37.6393 6.11803C37.962 5.6341 38.3384 5.31147 38.8223 4.98885C39.3062 4.72 39.8439 4.50492 40.4354 4.39738C41.0269 4.28984 41.6184 4.23606 42.2098 4.23606C42.7475 4.23606 43.2852 4.28984 43.8767 4.34361C44.4144 4.39738 44.9521 4.55869 45.3823 4.77377C45.8662 4.98885 46.1889 5.31147 46.5115 5.68787C46.7803 6.06426 46.9416 6.60197 46.9416 7.24721V12.8931C46.9416 13.377 46.9954 13.861 47.0492 14.2911C47.103 14.7213 47.2643 15.0977 47.4256 15.3128H44.4144C44.3069 15.2052 44.2531 14.9902 44.1993 14.8289C44.1456 14.6675 44.1456 14.4525 44.1456 14.2911C43.6616 14.7751 43.1239 15.0977 42.4787 15.3128C41.8334 15.5279 41.1882 15.5816 40.543 15.5816C40.0052 15.5816 39.5751 15.5279 39.0911 15.3666C38.661 15.259 38.2846 15.0439 37.9082 14.7751C37.5856 14.5062 37.3167 14.1836 37.1016 13.7534C36.9403 13.3233 36.8328 12.8931 36.8328 12.3016C36.8328 11.7102 36.9403 11.1725 37.1554 10.7961C37.3705 10.4197 37.6393 10.097 37.962 9.8282C38.2846 9.61311 38.7148 9.39803 39.1449 9.29049C39.5751 9.18295 40.0052 9.07541 40.4892 9.02164L41.7797 8.86033C42.2098 8.80656 42.5862 8.75279 42.9089 8.69902C43.2315 8.59147 43.5003 8.48393 43.7154 8.32262C43.9305 8.16131 43.9843 7.94623 43.9843 7.62361C43.9843 7.30098 43.9305 7.03213 43.823 6.87082C43.7154 6.70951 43.5541 6.5482 43.3928 6.44066C43.2315 6.33311 43.0164 6.27934 42.8013 6.22557C42.5862 6.1718 42.3174 6.1718 42.0485 6.1718C41.457 6.1718 41.0269 6.27934 40.7043 6.5482C40.3816 6.81705 40.1666 7.24721 40.1128 7.78492H37.1554C37.1554 7.13967 37.3705 6.5482 37.6393 6.11803ZM43.5003 10.3121C43.339 10.3659 43.1239 10.4197 42.9089 10.4734C42.6938 10.5272 42.4787 10.5272 42.2098 10.581C41.9948 10.6348 41.7259 10.6348 41.5108 10.6885L40.8656 10.8498C40.6505 10.9036 40.4354 11.0111 40.3279 11.1187C40.1666 11.2262 40.059 11.3875 39.9515 11.5489C39.7902 11.7639 39.7902 11.979 39.7902 12.2479C39.7902 12.5167 39.8439 12.7318 39.9515 12.8931C40.059 13.0544 40.1666 13.2157 40.3279 13.3233C40.4892 13.4308 40.7043 13.4846 40.9193 13.5384C41.1344 13.5921 41.3495 13.5921 41.6184 13.5921C42.2098 13.5921 42.64 13.4846 42.9626 13.3233C43.2852 13.1082 43.5003 12.8931 43.6616 12.6243C43.823 12.3554 43.9305 12.0866 43.9305 11.8177C43.9843 11.5489 43.9843 11.3338 43.9843 11.1725V10.0433C43.823 10.1508 43.6616 10.2584 43.5003 10.3121ZM51.4046 4.50492V6.01049H51.4584C51.8348 5.36524 52.3187 4.93508 52.9102 4.66623C53.5016 4.39738 54.1469 4.23606 54.7384 4.23606C55.5449 4.23606 56.1902 4.34361 56.6741 4.55869C57.2118 4.77377 57.5882 5.09639 57.857 5.47279C58.1259 5.84918 58.341 6.33311 58.5023 6.87082C58.6098 7.40852 58.6636 8 58.6636 8.69902V15.3128H55.7062V9.23672C55.7062 8.32262 55.5449 7.67738 55.2761 7.24721C55.0072 6.81705 54.5233 6.5482 53.7705 6.5482C52.9639 6.5482 52.3725 6.87082 51.9961 7.35475C51.6197 7.83869 51.4584 8.64524 51.4584 9.72065V15.3666H48.501V4.50492H51.4046ZM65.2774 6.44066C64.7934 6.44066 64.4171 6.5482 64.0944 6.76328C63.7718 6.97836 63.503 7.24721 63.2879 7.62361C63.0728 7.94623 62.9652 8.32262 62.8577 8.75279C62.7502 9.18295 62.7502 9.55934 62.7502 9.98951C62.7502 10.3659 62.8039 10.7961 62.8577 11.1725C62.9652 11.6026 63.0728 11.9252 63.2879 12.2479C63.503 12.5705 63.718 12.8393 64.0407 13.0544C64.3633 13.2695 64.7397 13.377 65.2236 13.377C65.9226 13.377 66.4603 13.162 66.8905 12.7856C67.2669 12.4092 67.5357 11.8715 67.5895 11.1725H70.4393C70.2243 12.6243 69.6866 13.6997 68.7725 14.4525C67.8584 15.2052 66.6754 15.5816 65.2236 15.5816C64.4171 15.5816 63.6643 15.4203 63.019 15.1515C62.32 14.8826 61.7823 14.5062 61.2984 14.0223C60.8144 13.5384 60.438 12.9469 60.1692 12.3016C59.9003 11.6026 59.7928 10.9036 59.7928 10.097C59.7928 9.23672 59.9003 8.48393 60.1692 7.78492C60.438 7.0859 60.7607 6.44066 61.2446 5.90295C61.7285 5.36525 62.32 4.98885 62.9652 4.66623C63.6643 4.39738 64.4171 4.23606 65.2774 4.23606C65.9226 4.23606 66.5141 4.34361 67.1056 4.50492C67.6971 4.66623 68.2348 4.93508 68.6649 5.2577C69.1489 5.58033 69.5253 6.01049 69.7941 6.5482C70.063 7.03213 70.2243 7.67738 70.278 8.37639H67.3744C67.2669 7.0859 66.5679 6.44066 65.2774 6.44066ZM15.8085 1.44H21.8308V2.8918H15.8085V1.44ZM74.9023 12.7318C75.3325 13.162 76.0315 13.377 76.838 13.377C77.4295 13.377 77.9672 13.2157 78.3974 12.9469C78.8275 12.6243 79.0964 12.3016 79.2039 11.979H81.7849C81.3548 13.2695 80.7095 14.1836 79.8492 14.7751C78.9889 15.3128 77.9672 15.6354 76.7305 15.6354C75.8702 15.6354 75.1174 15.4741 74.4184 15.2052C73.7193 14.9364 73.1816 14.56 72.6977 14.0223C72.2138 13.5384 71.8374 12.9469 71.6223 12.2479C71.3534 11.5489 71.2459 10.7961 71.2459 9.93574C71.2459 9.12918 71.3534 8.37639 71.6223 7.67738C71.8911 6.97836 72.2675 6.38688 72.7515 5.84918C73.2354 5.36525 73.8269 4.93508 74.4721 4.66623C75.1711 4.39738 75.9239 4.23606 76.7305 4.23606C77.6446 4.23606 78.4512 4.39738 79.0964 4.77377C79.7954 5.15016 80.3331 5.58033 80.7633 6.22557C81.1934 6.81705 81.5161 7.51607 81.7312 8.26885C81.9462 9.02164 82 9.8282 81.9462 10.6885H74.1495C74.1495 11.4951 74.4721 12.3016 74.9023 12.7318ZM78.3436 7.0859C77.9672 6.70951 77.3757 6.49443 76.6767 6.49443C76.1928 6.49443 75.8164 6.60197 75.4938 6.76328C75.1711 6.92459 74.9023 7.13967 74.741 7.35475C74.5797 7.56984 74.4184 7.83869 74.3646 8.10754C74.3108 8.37639 74.2571 8.59148 74.2571 8.80656H79.0964C78.9351 8 78.6662 7.46229 78.3436 7.0859Z" fill="black"/>
</g>
<defs>
<clipPath id="clip0_1_1196">
<rect width="82" height="16" fill="white"/>
</clipPath>
</defs>
</svg>
